<?xml version="1.0" encoding="iso-8859-1"?>
<!-- Generator: Adobe Illustrator 19.0.0, SVG Export Plug-In . SVG Version: 6.00 Build 0)  -->
<svg version="1.1" id="Capa_1" xmlns="http://www.w3.org/2000/svg" xmlns:xlink="http://www.w3.org/1999/xlink" x="0px" y="0px"
	 viewBox="0 0 512 512" style="enable-background:new 0 0 512 512;" xml:space="preserve">
<g>
	<g>
		
			<rect x="26.86" y="111.614" transform="matrix(-0.644 0.7651 -0.7651 -0.644 288.0635 106.8277)" style="fill:#35495E;" width="184.629" height="17.655"/>
		<polygon style="fill:#35495E;" points="335.448,156.213 326.082,141.241 450.207,61.793 459.573,76.765 		"/>
		
			<rect x="247.174" y="35.314" transform="matrix(-0.6 0.8 -0.8 -0.6 487.2902 -49.4269)" style="fill:#35495E;" width="17.655" height="123.586"/>
	</g>
	<path style="fill:#CC4B4C;" d="M17.655,379.586h52.966c9.751,0,17.655,7.904,17.655,17.655V512H0V397.241
		C0,387.491,7.904,379.586,17.655,379.586z"/>
	<path style="fill:#F0C419;" d="M158.897,256h52.966c9.751,0,17.655,7.904,17.655,17.655V512h-88.276V273.655
		C141.241,263.904,149.146,256,158.897,256z"/>
	<path style="fill:#4482C3;" d="M300.138,308.966h52.966c9.751,0,17.655,7.905,17.655,17.655V512h-88.276V326.621
		C282.483,316.87,290.387,308.966,300.138,308.966z"/>
	<path style="fill:#46B29D;" d="M441.379,238.345h52.966c9.751,0,17.655,7.904,17.655,17.655v256h-88.276V256
		C423.724,246.249,431.629,238.345,441.379,238.345z"/>
	<g>
		<circle style="fill:#CC4B4C;" cx="44.138" cy="211.862" r="44.138"/>
		<circle style="fill:#CC4B4C;" cx="185.379" cy="44.138" r="44.138"/>
		<circle style="fill:#CC4B4C;" cx="467.862" cy="61.793" r="44.138"/>
		<circle style="fill:#CC4B4C;" cx="326.621" cy="150.069" r="44.138"/>
	</g>
</g>
<g>
</g>
<g>
</g>
<g>
</g>
<g>
</g>
<g>
</g>
<g>
</g>
<g>
</g>
<g>
</g>
<g>
</g>
<g>
</g>
<g>
</g>
<g>
</g>
<g>
</g>
<g>
</g>
<g>
</g>
</svg>
