<?xml version="1.0" encoding="iso-8859-1"?>
<!-- Generator: Adobe Illustrator 19.0.0, SVG Export Plug-In . SVG Version: 6.00 Build 0)  -->
<svg version="1.1" id="Capa_1" xmlns="http://www.w3.org/2000/svg" xmlns:xlink="http://www.w3.org/1999/xlink" x="0px" y="0px"
	 viewBox="0 0 512 512" style="enable-background:new 0 0 512 512;" xml:space="preserve">
<polygon style="fill:#A0E557;" points="205,262.006 217.266,309.993 255.999,309.993 255.999,46.284 153.8,73.668 204.42,262.586 
	"/>
<path style="fill:#2E9DE3;" d="M126.002,502H30.005c-11.046,0-19.999-8.954-19.999-19.999V319.005c0-11.046,8.954-20,19.999-20
	h95.998c11.046,0,19.999,8.954,19.999,20v162.996C146.002,493.046,137.048,502,126.002,502z"/>
<polygon style="fill:#62CD4D;" points="255.999,502.032 255.999,10.013 501.993,10 501.993,502 365.584,502 "/>
<path style="fill:#D8FB93;" d="M462.459,365.368V222.302v-65.778v-55.589c-20.393,0-36.925-16.532-36.925-36.925h-93.075
	c0,20.392-16.532,36.925-36.925,36.925v209.069L462.459,365.368z"/>
<circle style="fill:#62CD4D;" cx="379" cy="256.004" r="37.858"/>
<path style="fill:#FFCDAC;" d="M445.169,358.004H413.87c13.255,0,23.999-10.745,23.999-23.999l0,0
	c0-13.255-10.745-23.999-23.999-23.999H217.266l-15.432-44.832l-55.832,55.832v146.996l27.577,24.05
	c7.356,6.415,16.786,9.949,26.545,9.949h188.997c13.455,0,24.79-11.011,24.535-24.463c-0.247-13.041-10.896-23.535-23.995-23.535
	h33.573c13.455,0,24.79-11.011,24.535-24.463c-0.247-13.041-10.896-23.535-23.995-23.535h21.392
	c13.255,0,23.999-10.745,23.999-23.999l0,0C469.169,368.749,458.424,358.004,445.169,358.004z"/>
<path style="fill:#D8FB93;" d="M254.233,104.516l-12.348,3.309c5.278,19.699-6.412,39.945-26.109,45.223l40.223,148.945"/>
<path d="M78.004,452.002c-2.63,0-5.21,1.069-7.07,2.93c-1.86,1.861-2.93,4.44-2.93,7.07c0,2.63,1.069,5.21,2.93,7.069
	c1.86,1.86,4.44,2.931,7.07,2.931c2.63,0,5.21-1.07,7.069-2.931c1.86-1.859,2.931-4.439,2.931-7.069c0-2.63-1.07-5.21-2.931-7.07
	C83.213,453.07,80.633,452.002,78.004,452.002z"/>
<path d="M462.454,180.008c-2.63,0-5.21,1.069-7.07,2.93c-1.859,1.86-2.93,4.44-2.93,7.07c0,2.63,1.07,5.21,2.93,7.069
	c1.86,1.86,4.44,2.931,7.07,2.931c2.64,0,5.21-1.07,7.07-2.931c1.869-1.859,2.939-4.439,2.939-7.069c0-2.63-1.07-5.21-2.939-7.07
	C467.664,181.077,465.094,180.008,462.454,180.008z"/>
<path d="M509.065,2.929C507.189,1.054,504.645,0,501.992,0L255.998,0.013c-5.522,0-9.999,4.478-9.999,10V38.61l-94.789,25.399
	c-5.335,1.43-8.501,6.913-7.071,12.247l49.127,183.342l-42.499,42.499c-5.409-7.898-14.491-13.092-24.764-13.092H30.006
	c-16.542,0-29.999,13.458-29.999,29.999v162.996C0.006,498.542,13.464,512,30.006,512h95.998c14.053,0,25.875-9.716,29.115-22.78
	l11.89,10.369c9.179,8.004,20.939,12.412,33.118,12.412h301.867c5.522,0,10-4.478,10-10V10
	C511.992,7.348,510.94,4.804,509.065,2.929z M245.999,226.61l-18.239-67.535c7.618-3.934,13.854-9.82,18.239-16.846V226.61z
	 M245.999,59.314V96.37l-6.702,1.796c-2.563,0.687-4.746,2.362-6.072,4.659c-1.326,2.297-1.686,5.026-0.999,7.588
	c3.843,14.341-4.698,29.134-19.039,32.977c-2.565,0.688-4.752,2.366-6.077,4.668c-1.325,2.301-1.682,5.035-0.989,7.599
	l38.979,144.338h-20.07l-10.343-40.464c-0.329-1.288-0.905-2.475-1.676-3.507L166.045,80.739L245.999,59.314z M126.002,492.001
	H30.005c-5.514,0-10-4.486-10-10V319.005c0-5.514,4.486-10,10-10h37.999V424.2c0,5.522,4.478,10,10,10c5.522,0,10-4.478,10-10
	V309.005h37.999c5.514,0,10,4.486,10,10v162.996C136.002,487.514,131.516,492.001,126.002,492.001z M200.125,492.001
	c-7.345,0-14.438-2.658-19.974-7.485l-24.149-21.061V325.147l43.658-43.658l7.918,30.98c1.132,4.427,5.119,7.523,9.688,7.523
	l196.604,0.012c7.72,0,14,6.28,14,14c0,7.72-6.28,14-14,14H313.13c-5.522,0-10,4.478-10,10c0,5.522,4.478,10,10,10h132.04
	c7.72,0,14,6.28,14,14c0,7.72-6.28,14-14,14H313.13c-5.522,0-10,4.478-10,10c0,5.522,4.478,10,10,10h110.643c7.72,0,14,6.28,14,14
	c0,7.72-6.28,14-14,14H313.13c-5.522,0-10,4.478-10,10c0,5.522,4.478,10,10,10h76.533c7.72,0,14,6.28,14,14c0,7.72-6.28,14-14,14
	H200.125V492.001z M491.993,492.001h-71.359c1.939-4.273,3.028-9.01,3.028-14s-1.089-9.727-3.028-14h3.139
	c18.747,0,33.999-15.252,33.999-33.999c0-5.468-1.305-10.635-3.609-15.217c14.396-3.954,25.005-17.149,25.005-32.782
	c0-7.584-2.498-14.595-6.711-20.255V235.007c0-5.522-4.478-10-10-10c-5.522,0-10,4.478-10,10v113.792
	c-2.35-0.515-4.787-0.795-7.289-0.795h-0.328c1.939-4.273,3.028-9.01,3.028-14c0-18.747-15.252-33.999-33.999-33.999h-16.075
	c17.069-7.32,29.057-24.286,29.057-44.005c0-26.389-21.468-47.858-47.857-47.858S331.139,229.612,331.139,256
	c0,19.719,11.989,36.685,29.057,44.005h-54.663V109.863c17.864-3.893,31.96-17.988,35.852-35.853h75.221
	c3.892,17.865,17.988,31.96,35.852,35.853v31.09c0,5.522,4.478,10,10,10c5.522,0,10-4.478,10-10v-40.018c0-5.522-4.478-10-10-10
	c-14.847,0-26.924-12.079-26.924-26.925c0-5.522-4.478-10-10-10h-93.076c-5.522,0-10,4.478-10,10
	c0,14.847-12.078,26.925-26.924,26.925c-5.522,0-10,4.478-10,10v199.069H266V20.011L491.994,20v472H491.993z M378.996,283.858
	c-15.361,0-27.857-12.497-27.857-27.857s12.497-27.858,27.857-27.858S406.853,240.64,406.853,256S394.357,283.858,378.996,283.858z"
	/>
<g>
</g>
<g>
</g>
<g>
</g>
<g>
</g>
<g>
</g>
<g>
</g>
<g>
</g>
<g>
</g>
<g>
</g>
<g>
</g>
<g>
</g>
<g>
</g>
<g>
</g>
<g>
</g>
<g>
</g>
</svg>
