<svg height="512pt" viewBox="-21 0 512 512.001" width="512pt" xmlns="http://www.w3.org/2000/svg"><path d="m199.675781 504.5-7.808593-60.101562 7.808593-40.09375h70.5625l12.023438 58.421874-12.023438 41.773438zm0 0" fill="#e8e8e8"/><path d="m310.128906 424.886719c5.964844 7.691406 12.214844 17.527343 17.203125 29.515625 3.0625 7.351562 5.65625 15.511718 7.382813 24.476562 1.5625 7.921875 2.457031 16.457032 2.457031 25.621094h-49.046875l-17.886719-39.808594zm0 0" fill="#282c33"/><path d="m159.785156 424.886719c-5.964844 7.691406-12.214844 17.527343-17.203125 29.515625-3.0625 7.351562-5.65625 15.511718-7.382812 24.476562-1.5625 7.921875-2.457031 16.457032-2.457031 25.621094h49.046874l17.886719-39.808594zm0 0" fill="#282c33"/><path d="m294.335938 7.5c-83.675782 0-125.5 26.210938-138.96875 36.785156-3.375 2.648438-7.710938 3.742188-11.9375 3.003906-104.347657-18.226562-145.191407 65.546876-124.167969 180.011719l7.042969 11.800781h398.050781l26.296875-11.800781c30.261718-147.082031-51.496094-219.800781-156.316406-219.800781zm0 0" fill="#394048"/><path d="m131.605469 45.644531c-95.582031-10.03125-132.554688 71.625-112.34375 181.65625l7.042969 11.800781h30l-7.042969-11.800781c-17.941407-97.667969 9.179687-172.976562 82.34375-181.65625zm0 0" fill="#31363e"/><path d="m306.015625 472.199219s-3.480469 16.898437-17.890625 32.300781h-17.886719v-32.300781c8.386719-5.863281 15.144531-11.972657 20.539063-17.796875zm0 0" fill="#31363e"/><path d="m310.128906 424.886719s-4.601562 13.632812-19.347656 29.515625c-5.398438 5.824218-12.15625 11.933594-20.542969 17.796875v-67.898438h19.558594s9.699219 6.867188 20.324219 20.5625zm0 0" fill="#394048"/><path d="m163.898438 472.199219s3.476562 16.898437 17.890624 32.300781h17.886719v-32.300781c-8.386719-5.863281-15.144531-11.972657-20.542969-17.796875zm0 0" fill="#31363e"/><path d="m159.785156 424.886719s4.601563 13.632812 19.347656 29.515625c5.398438 5.824218 12.15625 11.933594 20.542969 17.796875v-67.898438h-19.558593s-9.699219 6.867188-20.324219 20.5625zm0 0" fill="#394048"/><path d="m251.355469 504.5-6.890625-65.425781h-19.015625l-6.890625 65.425781zm0 0" fill="#d05e60"/><path d="m249.191406 401.828125h-27.476562l-1.675782 28.0625c-.191406 3.234375 1.3125 6.335937 3.972657 8.183594l7.164062 4.980469c2.570313 1.789062 5.984375 1.789062 8.558594 0l7.160156-4.980469c2.660157-1.847657 4.167969-4.949219 3.972657-8.183594zm0 0" fill="#e16668"/><path d="m462.414062 254.796875c0 21.019531-17.039062 38.058594-38.058593 38.058594-21.015625 0-38.054688-17.039063-38.054688-38.058594 0-21.015625 17.039063-38.054687 38.054688-38.054687 21.019531 0 38.058593 17.039062 38.058593 38.054687zm0 0" fill="#d7a37e"/><path d="m420.539062 185.824219c-1.277343-5.785157-7.070312-9.382813-12.789062-7.847657-21.863281 5.878907-75.742188 15.433594-123.53125-15.398437-90.800781-55.726563-194.859375-28.425781-234.910156 46.015625-2.789063 5.183594-4.246094 10.980469-4.246094 16.867188v.085937c0 103.097656 85.019531 186.671875 189.894531 186.671875 104.878907 0 189.894531-83.578125 189.894531-186.671875 0-13.632813-1.488281-26.921875-4.3125-39.722656zm0 0" fill="#f1be8c"/><path d="m75.058594 225.546875c0-5.941406 1.46875-11.792969 4.285156-17.023437 23.234375-43.125 67.964844-70.414063 119.144531-74.875-63.292969-5.40625-121.511719 23.515624-149.179687 74.941406-1.394532 2.589844-2.453125 5.335937-3.167969 8.167968-.195313-.003906-.386719-.015624-.585937-.015624-21.015626 0-38.054688 17.039062-38.054688 38.054687 0 21.019531 17.039062 38.058594 38.054688 38.058594 4.355468 0 8.144531-.742188 11.429687-2.085938 26.914063 70.925781 96.4375 121.449219 177.972656 121.449219 5.046875 0 10.050781-.199219 15-.578125-97.863281-7.519531-174.898437-87.960937-174.898437-186.09375zm0 0" fill="#d7a37e"/><path d="m340.582031 290.488281h-24.703125c-4.140625 0-7.5-3.359375-7.5-7.5s3.359375-7.5 7.5-7.5h24.703125c4.140625 0 7.5 3.359375 7.5 7.5s-3.359375 7.5-7.5 7.5zm0 0" fill="#e98e8f"/><path d="m154.035156 290.488281h-24.703125c-4.140625 0-7.5-3.359375-7.5-7.5s3.359375-7.5 7.5-7.5h24.703125c4.140625 0 7.5 3.359375 7.5 7.5s-3.359375 7.5-7.5 7.5zm0 0" fill="#e98e8f"/><path d="m328.230469 263.832031c4.140625 0 7.5-3.359375 7.5-7.5v-16.125c0-4.144531-3.359375-7.5-7.5-7.5s-7.5 3.355469-7.5 7.5v16.125c0 4.140625 3.359375 7.5 7.5 7.5zm0 0"/><path d="m141.683594 263.832031c4.140625 0 7.5-3.359375 7.5-7.5v-16.125c0-4.144531-3.359375-7.5-7.5-7.5-4.144532 0-7.5 3.355469-7.5 7.5v16.125c0 4.140625 3.355468 7.5 7.5 7.5zm0 0"/><path d="m256.574219 268.9375c-3.117188-2.726562-7.855469-2.410156-10.582031.707031-2.675782 3.0625-6.699219 4.820313-11.035157 4.820313-4.339843 0-8.363281-1.757813-11.039062-4.820313-2.726563-3.117187-7.464844-3.433593-10.582031-.707031-3.117188 2.722656-3.4375 7.460938-.710938 10.582031 5.527344 6.320313 13.664062 9.945313 22.332031 9.945313 8.664063 0 16.804688-3.625 22.328125-9.945313 2.726563-3.121093 2.410156-7.859375-.710937-10.582031zm0 0"/><path d="m45.558594 300.355469c2.359375 0 4.707031-.183594 7.023437-.542969 20.847657 49.359375 61.824219 88.488281 112.796875 107.4375-3.425781 3.390625-7.40625 7.730469-11.511718 13.019531-.019532.027344-.039063.058594-.0625.085938-18.472657 24.210937-28.5625 53.671875-28.5625 84.144531 0 4.144531 3.355468 7.5 7.5 7.5h204.429687c4.140625 0 7.5-3.355469 7.5-7.5 0-36.203125-14.359375-71.710938-40.136719-97.25 50.972656-18.949219 91.949219-58.078125 112.796875-107.4375 2.316407.363281 4.664063.542969 7.023438.542969 25.121093 0 45.558593-20.4375 45.558593-45.554688 0-11.367187-4.222656-21.789062-11.171874-29.789062 13.453124-69.195313 3.171874-127.082031-29.84375-167.585938-30.1875-37.03125-77.976563-57.425781-134.5625-57.425781-85.480469 0-128.902344 26.84375-143.601563 38.386719-1.699219 1.332031-3.894531 1.886719-6.015625 1.515625-40.429688-7.0625-74.519531.535156-98.574219 21.976562-3.09375 2.753906-3.363281 7.496094-.609375 10.585938 2.757813 3.09375 7.5 3.367187 10.589844.609375 20.804688-18.542969 49.746094-24.730469 86.015625-18.394531 6.3125 1.101562 12.816406-.539063 17.855469-4.496094 13.472656-10.578125 53.539062-35.183594 134.339844-35.183594 51.992187 0 95.652343 18.433594 122.933593 51.902344 28.90625 35.457031 38.570313 86.285156 28.175781 147.511718-4.292968-2.246093-8.921874-3.792968-13.734374-4.574218-.488282-5.984375-1.332032-11.917969-2.332032-17.832032-1.261718-7.535156-2.675781-15.015624-9.734375-19.300781-6.328125-3.84375-12.589843-2.164062-19.308593-.609375-20.226563 4.683594-59.128907 9.746094-96.632813-7.386718-9.753906-4.457032-18.578125-10.65625-28.050781-15.644532-43.472656-22.996094-90.859375-29.476562-135.128906-18.292968-40.175782 10.148437-83.980469 38.765624-99.902344 78.730468-4.109375.445313-16.007813 4.175782-15.917969 4.78125-7.234375-48.800781-2.335937-90.925781 14.058594-119.539062 2.058593-3.59375.816406-8.175782-2.777344-10.234375-3.59375-2.058594-8.179687-.816407-10.238281 2.777343-19.300782 33.6875-24.296875 81.214844-14.523438 137.613282-6.980468 8.007812-11.222656 18.460937-11.222656 29.894531 0 25.121094 20.4375 45.558594 45.558594 45.558594zm1.542968-15.039063c-.511718.027344-1.027343.039063-1.542968.039063-16.851563 0-30.558594-13.707031-30.558594-30.558594 0-13.429687 9.457031-25.839844 22.371094-29.441406.0625-.015625.125-.03125.191406-.050781 0 .082031-.003906.164062-.003906.242187 0 8.308594.539062 16.617187 1.613281 24.855469 1.542969 11.859375 4.183594 23.527344 7.929687 34.914062zm145.074219 129.8125v41.570313c-1.449219-1.292969-2.859375-2.628907-4.238281-3.996094-7.738281-7.6875-14.742188-16.664063-19.492188-26.625 5.457032-6.539063 10.40625-11.066406 13.3125-13.511719 1.382813.382813 8.324219 2.105469 10.417969 2.5625zm-51.71875 81.871094c.328125-5.671875 1.03125-11.261719 2.101563-16.699219 2.84375-14.425781 8.292968-28.246093 16.09375-40.707031 3.097656 5.25 6.648437 10.195312 10.550781 14.875-3.988281 4.660156-14.070313 12.347656-12.652344 19.242188 1.128907 5.46875 3.382813 10.824218 5.855469 15.808593 1.273438 2.558594 2.671875 5.058594 4.195312 7.480469zm51.71875 0h-7.023437c-1.550782-1.828125-2.992188-3.726562-4.347656-5.707031-3.628907-5.316407-6.585938-11.144531-8.601563-17.265625l7.332031-8.5625c.230469.21875 8.480469 7.5 12.640625 10.578125zm15-79.203125c.429688.058594 5.125.640625 6.027344.734375l-.652344 10.910156c-.289062 4.855469 1.589844 9.605469 5.003907 12.976563l-5.75 54.582031h-4.628907zm55.5625 0v79.203125h-4.632812l-5.660157-53.753906c3.980469-3.390625 6.222657-8.535156 5.910157-13.804688l-.660157-11.019531c1.25-.140625 4.609376-.566406 5.042969-.625zm-27.285156 19.097656-7.160156-4.976562c-.511719-.355469-.804688-.960938-.765625-1.582031l.640625-10.738282c.28125.011719 9.996093.144532 14.570312-.03125l.640625 10.769532c.039063.621093-.253906 1.226562-.765625 1.582031zm-8.5625 60.105469 4.800781-45.578125c.042969.007813.089844.015625.136719.023437 2.058594.515626 4.316406.59375 6.417969.191407l4.777344 45.363281zm50.847656-20.957031c.238281-.179688 8.875-7.015625 12.636719-10.578125l7.332031 8.5625c-1.464843 4.457031-4.808593 12.730468-11.398437 21.082031-.503906.640625-1.023438 1.269531-1.550782 1.890625h-7.019531zm49.621094 4.285156c1.066406 5.417969 1.769531 11 2.097656 16.671875h-26.144531c3.171875-5.046875 5.824219-10.417969 7.863281-16.019531 1.5625-4.28125 3.972657-9.640625.535157-13.65625l-11.003907-12.859375c-.054687-.066406 1.617188-1.988282 1.714844-2.113282 3.730469-4.691406 6.628906-9.050781 8.828125-12.777343 7.796875 12.453125 13.324219 26.324219 16.109375 40.753906zm-39.195313-67.761719c2.894532 2.425782 7.8125 6.921875 13.304688 13.507813-.019531.042969-.042969.089843-.0625.132812-4.796875 9.925781-11.625 18.757813-19.433594 26.5-1.378906 1.367188-2.789062 2.703125-4.234375 3.992188v-41.570313c2.414063-.527344 9.355469-2.269531 10.425781-2.5625zm-3.3125-14.664062c-.011718.003906-.023437.003906-.035156.007812-31.308594 8.171875-64.355468 9.078125-95.789062 1.050782-72.550782-18.558594-127.667969-80-135.507813-155.050782-.640625-6.128906-.960937-12.289062-.960937-18.449218.003906-4.402344 1.0625-8.773438 3.042968-12.695313 16.613282-32.828125 48.765626-56.09375 83.691407-66.132813 43.183593-12.414062 90.003906-5.152343 129.371093 15.710938 9.644532 5.109375 18.652344 11.355469 28.597657 15.917969 33.132812 15.191406 71.390625 16.617187 106.570312 8.425781 1.945313-.453125 3.972657-.835938 5.871094-1.46875 1.65625-.550781 3.210937.855469 3.550781 2.398438 4.339844 19.769531 5.234375 40.339843 2.667969 60.414062-.019531.152344-.039063.304688-.058594.453125-9.351562 71.578125-61.871093 130.078125-131.011719 149.417969zm139.503907-112.546875c-.515625 0-1.03125-.011719-1.546875-.039063 3.746094-11.386718 6.390625-23.054687 7.933594-34.914062.011718-.109375.027343-.21875.042968-.328125 1.039063-8.128907 1.566406-16.332031 1.566406-24.527344 0-.078125 0-.15625 0-.234375.019532.007812.035157.011719.054688.015625 12.945312 3.554687 22.507812 15.449219 22.507812 29.46875 0 16.851563-13.707031 30.558594-30.558593 30.558594zm0 0"/></svg>